Pacifico-Light.ufo
<glyph name="dollar" format="1">
  <advance width="593"/>
  <unicode hex="0024"/>
  <outline>
    <contour>
      <point x="336" y="41" type="curve"/>
      <point x="378" y="268" type="line"/>
      <point x="412" y="243"/>
      <point x="465" y="218"/>
      <point x="465" y="166" type="curve" smooth="yes"/>
      <point x="465" y="99"/>
      <point x="400" y="51"/>
    </contour>
    <contour>
      <point x="333" y="346" type="curve"/>
      <point x="294" y="370"/>
      <point x="247" y="399"/>
      <point x="247" y="460" type="curve" smooth="yes"/>
      <point x="247" y="519"/>
      <point x="293" y="549"/>
      <point x="369" y="552" type="curve"/>
      <point x="359" y="495"/>
      <point x="344" y="412"/>
    </contour>
    <contour>
      <point x="571" y="475" type="curve" smooth="yes"/>
      <point x="571" y="543"/>
      <point x="495" y="581"/>
      <point x="432" y="592" type="curve"/>
      <point x="438" y="631" type="line" smooth="yes"/>
      <point x="440" y="641"/>
      <point x="441" y="650"/>
      <point x="441" y="658" type="curve" smooth="yes"/>
      <point x="441" y="669"/>
      <point x="438" y="677"/>
      <point x="427" y="677" type="curve" smooth="yes"/>
      <point x="405" y="677"/>
      <point x="390" y="665"/>
      <point x="387" y="646" type="curve" smooth="yes"/>
      <point x="378" y="595" type="line"/>
      <point x="278" y="593"/>
      <point x="195" y="553"/>
      <point x="195" y="457" type="curve" smooth="yes"/>
      <point x="195" y="377"/>
      <point x="268" y="327"/>
      <point x="325" y="296" type="curve"/>
      <point x="277" y="42" type="line"/>
      <point x="197" y="44"/>
      <point x="142" y="75"/>
      <point x="142" y="136" type="curve" smooth="yes"/>
      <point x="142" y="177"/>
      <point x="174" y="208"/>
      <point x="215" y="208" type="curve" smooth="yes"/>
      <point x="229" y="208"/>
      <point x="236" y="216"/>
      <point x="236" y="228" type="curve" smooth="yes"/>
      <point x="236" y="244"/>
      <point x="227" y="250"/>
      <point x="208" y="250" type="curve" smooth="yes"/>
      <point x="137" y="250"/>
      <point x="94" y="205"/>
      <point x="94" y="135" type="curve" smooth="yes"/>
      <point x="94" y="41"/>
      <point x="179" y="7"/>
      <point x="271" y="1" type="curve"/>
      <point x="268" y="-13"/>
      <point x="264" y="-32"/>
      <point x="264" y="-48" type="curve" smooth="yes"/>
      <point x="264" y="-64"/>
      <point x="268" y="-76"/>
      <point x="280" y="-76" type="curve" smooth="yes"/>
      <point x="304" y="-76"/>
      <point x="314" y="-73"/>
      <point x="318" y="-60" type="curve" smooth="yes"/>
      <point x="330" y="1" type="line"/>
      <point x="436" y="16"/>
      <point x="515" y="64"/>
      <point x="515" y="166" type="curve" smooth="yes"/>
      <point x="515" y="247"/>
      <point x="441" y="284"/>
      <point x="385" y="316" type="curve"/>
      <point x="425" y="549" type="line"/>
      <point x="456" y="545"/>
      <point x="516" y="514"/>
      <point x="520" y="478" type="curve" smooth="yes"/>
      <point x="522" y="458"/>
      <point x="535" y="448"/>
      <point x="548" y="448" type="curve" smooth="yes"/>
      <point x="560" y="448"/>
      <point x="571" y="457"/>
    </contour>
  </outline>
</glyph>
<glyph name="slash" format="1">
  <advance width="426"/>
  <unicode hex="002F"/>
  <outline>
    <contour>
      <point x="134" y="17" type="curve" smooth="yes"/>
      <point x="162" y="79"/>
      <point x="296" y="385"/>
      <point x="374" y="559" type="curve" smooth="yes"/>
      <point x="376" y="564"/>
      <point x="377" y="569"/>
      <point x="377" y="573" type="curve" smooth="yes"/>
      <point x="377" y="586"/>
      <point x="369" y="595"/>
      <point x="358" y="595" type="curve" smooth="yes"/>
      <point x="349" y="595"/>
      <point x="340" y="588"/>
      <point x="332" y="572" type="curve" smooth="yes"/>
      <point x="260" y="416"/>
      <point x="125" y="106"/>
      <point x="93" y="35" type="curve" smooth="yes"/>
      <point x="88" y="25"/>
      <point x="86" y="17"/>
      <point x="86" y="10" type="curve" smooth="yes"/>
      <point x="86" y="-3"/>
      <point x="94" y="-11"/>
      <point x="103" y="-11" type="curve" smooth="yes"/>
      <point x="113" y="-11"/>
      <point x="125" y="-2"/>
    </contour>
  </outline>
</glyph>
<glyph name="L" format="1">
  <advance width="644"/>
  <unicode hex="004C"/>
  <outline>
    <contour>
      <point x="906" y="583" type="move" name="caron.alt"/>
    </contour>
    <contour>
      <point x="652" y="658" type="move" name="top"/>
    </contour>
    <contour>
      <point x="422" y="-144" type="move" name="bot"/>
    </contour>
    <contour>
      <point x="417.121" y="434.946" type="curve"/>
      <point x="376.021" y="442.711"/>
      <point x="331.347" y="454.194"/>
      <point x="283" y="470" type="curve" smooth="yes"/>
      <point x="281" y="471"/>
      <point x="280" y="471"/>
      <point x="278" y="471" type="curve" smooth="yes"/>
      <point x="265" y="471"/>
      <point x="257" y="455"/>
      <point x="257" y="443" type="curve" smooth="yes"/>
      <point x="257" y="437"/>
      <point x="259" y="432"/>
      <point x="264" y="430" type="curve" smooth="yes"/>
      <point x="319.077" y="412.137"/>
      <point x="370.214" y="399.445"/>
      <point x="417.29" y="391.19" type="curve"/>
      <point x="417.585" y="371.518"/>
      <point x="418" y="351.967"/>
      <point x="418" y="332" type="curve" smooth="yes"/>
      <point x="418" y="233.391"/>
      <point x="411.394" y="135.356"/>
      <point x="376.018" y="65.6013" type="curve"/>
      <point x="303.245" y="103.368"/>
      <point x="231.051" y="132"/>
      <point x="165" y="132" type="curve" smooth="yes"/>
      <point x="97" y="132"/>
      <point x="62" y="86"/>
      <point x="62" y="38" type="curve" smooth="yes"/>
      <point x="62" y="-17"/>
      <point x="107" y="-75"/>
      <point x="201" y="-75" type="curve" smooth="yes"/>
      <point x="288.388" y="-75"/>
      <point x="347.761" y="-45.4712"/>
      <point x="387.995" y="3.05203" type="curve"/>
      <point x="518.494" y="-72.1619"/>
      <point x="650.778" y="-174"/>
      <point x="758" y="-174" type="curve" smooth="yes"/>
      <point x="813" y="-174"/>
      <point x="861" y="-147"/>
      <point x="899" y="-76" type="curve" smooth="yes"/>
      <point x="902" y="-70"/>
      <point x="903" y="-65"/>
      <point x="903" y="-60" type="curve" smooth="yes"/>
      <point x="903" y="-50"/>
      <point x="897" y="-42"/>
      <point x="889" y="-42" type="curve" smooth="yes"/>
      <point x="883" y="-42"/>
      <point x="875" y="-47"/>
      <point x="868" y="-58" type="curve" smooth="yes"/>
      <point x="841" y="-99"/>
      <point x="806" y="-115"/>
      <point x="765" y="-115" type="curve" smooth="yes"/>
      <point x="669.925" y="-115"/>
      <point x="543.384" y="-26.6841"/>
      <point x="415.526" y="44.3293" type="curve"/>
      <point x="462.6" y="132.064"/>
      <point x="470.656" y="257.488"/>
      <point x="470.989" y="383.459" type="curve"/>
      <point x="498.258" y="380.428"/>
      <point x="523.938" y="379"/>
      <point x="548" y="379" type="curve" smooth="yes"/>
      <point x="753" y="379"/>
      <point x="847" y="482"/>
      <point x="847" y="576" type="curve" smooth="yes"/>
      <point x="847" y="654"/>
      <point x="781" y="725"/>
      <point x="660" y="725" type="curve" smooth="yes"/>
      <point x="494.936" y="725"/>
      <point x="420.498" y="587.629"/>
    </contour>
    <contour>
      <point x="471.801" y="426.508" type="curve"/>
      <point x="480.071" y="599.423"/>
      <point x="551.702" y="678"/>
      <point x="656" y="678" type="curve" smooth="yes"/>
      <point x="742" y="678"/>
      <point x="789" y="628"/>
      <point x="789" y="572" type="curve" smooth="yes"/>
      <point x="789" y="501"/>
      <point x="714" y="422"/>
      <point x="545" y="422" type="curve" smooth="yes"/>
      <point x="522.254" y="422"/>
      <point x="497.865" y="423.437"/>
    </contour>
    <contour>
      <point x="348.9" y="24.7029" type="curve"/>
      <point x="317.155" y="-11.8922"/>
      <point x="271.22" y="-34"/>
      <point x="205" y="-34" type="curve" smooth="yes"/>
      <point x="144" y="-34"/>
      <point x="113" y="4"/>
      <point x="113" y="36" type="curve" smooth="yes"/>
      <point x="113" y="60"/>
      <point x="130" y="82"/>
      <point x="166" y="82" type="curve" smooth="yes"/>
      <point x="223.866" y="82"/>
      <point x="285.856" y="58.0029"/>
    </contour>
  </outline>
</glyph>
<glyph name="Q" format="1">
  <advance width="643"/>
  <unicode hex="0051"/>
  <outline>
    <component base="O"/>
    <contour>
      <point x="942" y="-188" type="curve" smooth="yes"/>
      <point x="984" y="-155"/>
      <point x="997" y="-126"/>
      <point x="1002" y="-114" type="curve" smooth="yes"/>
      <point x="1004" y="-109"/>
      <point x="1005" y="-105"/>
      <point x="1005" y="-102" type="curve" smooth="yes"/>
      <point x="1005" y="-93"/>
      <point x="990" y="-85"/>
      <point x="983" y="-89" type="curve" smooth="yes"/>
      <point x="980" y="-91"/>
      <point x="979" y="-94"/>
      <point x="976" y="-98" type="curve" smooth="yes"/>
      <point x="947" y="-131"/>
      <point x="908" y="-168"/>
      <point x="850" y="-168" type="curve" smooth="yes"/>
      <point x="783" y="-168"/>
      <point x="680" y="-124"/>
      <point x="479" y="8" type="curve" smooth="yes"/>
      <point x="478" y="9"/>
      <point x="478" y="9"/>
      <point x="477" y="9" type="curve" smooth="yes"/>
      <point x="470" y="9"/>
      <point x="454" y="-9"/>
      <point x="454" y="-19" type="curve" smooth="yes"/>
      <point x="454" y="-21"/>
      <point x="455" y="-22"/>
      <point x="456" y="-23" type="curve" smooth="yes"/>
      <point x="655" y="-150"/>
      <point x="760" y="-225"/>
      <point x="845" y="-225" type="curve" smooth="yes"/>
      <point x="879" y="-225"/>
      <point x="910" y="-213"/>
    </contour>
  </outline>
</glyph>
<glyph name="b" format="1">
  <advance width="371"/>
  <unicode hex="0062"/>
  <outline>
    <contour>
      <point x="107" y="271" type="curve"/>
      <point x="146" y="453"/>
      <point x="214" y="600"/>
      <point x="275" y="600" type="curve" smooth="yes"/>
      <point x="292" y="600"/>
      <point x="299" y="588"/>
      <point x="299" y="574" type="curve" smooth="yes"/>
      <point x="299" y="458"/>
      <point x="119" y="285"/>
    </contour>
    <contour>
      <point x="171" y="39" type="curve" smooth="yes"/>
      <point x="117" y="39"/>
      <point x="93" y="76"/>
      <point x="93" y="135" type="curve" smooth="yes"/>
      <point x="93" y="203"/>
      <point x="145" y="286"/>
      <point x="215" y="286" type="curve" smooth="yes"/>
      <point x="262.192" y="286"/>
      <point x="274.67" y="248.892"/>
      <point x="277.901" y="211.719" type="curve"/>
      <point x="276.721" y="211.903"/>
      <point x="275.426" y="212"/>
      <point x="274" y="212" type="curve" smooth="yes"/>
      <point x="245" y="212"/>
      <point x="236" y="191"/>
      <point x="236" y="173" type="curve" smooth="yes"/>
      <point x="236" y="153.874"/>
      <point x="247.541" y="138.762"/>
      <point x="270.624" y="131.575" type="curve"/>
      <point x="254.501" y="83.292"/>
      <point x="216.675" y="39"/>
    </contour>
    <contour>
      <point x="319.34" y="127.811" type="curve"/>
      <point x="364.575" y="132.794"/>
      <point x="413.085" y="159.989"/>
      <point x="442" y="188" type="curve" smooth="yes"/>
      <point x="450" y="194"/>
      <point x="451" y="197"/>
      <point x="451" y="207" type="curve" smooth="yes"/>
      <point x="451" y="219"/>
      <point x="445" y="224"/>
      <point x="439" y="224" type="curve" smooth="yes"/>
      <point x="433" y="224"/>
      <point x="382" y="172"/>
      <point x="327" y="172" type="curve" smooth="yes"/>
      <point x="326.777" y="172"/>
      <point x="326.555" y="172.002"/>
      <point x="326.334" y="172.002" type="curve"/>
      <point x="326.72" y="177.357"/>
      <point x="326.942" y="182.697"/>
      <point x="327" y="188" type="curve" smooth="yes"/>
      <point x="327" y="263"/>
      <point x="297" y="330"/>
      <point x="240" y="330" type="curve" smooth="yes"/>
      <point x="237" y="330" type="line" smooth="yes"/>
      <point x="222" y="330"/>
      <point x="205" y="325"/>
      <point x="186" y="314" type="curve"/>
      <point x="245" y="357"/>
      <point x="349" y="476"/>
      <point x="349" y="583" type="curve" smooth="yes"/>
      <point x="349" y="630"/>
      <point x="325" y="656"/>
      <point x="290" y="656" type="curve" smooth="yes"/>
      <point x="153" y="656"/>
      <point x="54" y="365"/>
      <point x="44" y="128" type="curve" smooth="yes"/>
      <point x="44" y="122" type="line" smooth="yes"/>
      <point x="44" y="53"/>
      <point x="80" y="-5"/>
      <point x="171" y="-5" type="curve" smooth="yes"/>
      <point x="253.783" y="-5"/>
      <point x="301.801" y="57.2122"/>
    </contour>
  </outline>
</glyph>
<glyph name="f" format="1">
  <advance width="241"/>
  <unicode hex="0066"/>
  <outline>
    <contour>
      <point x="302" y="658" type="move" name="top"/>
    </contour>
    <contour>
      <point x="93" y="222" type="curve"/>
      <point x="109" y="302"/>
      <point x="187" y="613"/>
      <point x="275" y="613" type="curve" smooth="yes"/>
      <point x="298" y="613"/>
      <point x="303" y="588"/>
      <point x="303" y="568" type="curve" smooth="yes"/>
      <point x="303" y="473"/>
      <point x="174" y="321"/>
    </contour>
    <contour>
      <point x="109" y="-164" type="curve" smooth="yes"/>
      <point x="79" y="-164"/>
      <point x="78" y="-91"/>
      <point x="78" y="-37" type="curve" smooth="yes"/>
      <point x="78" y="-26" type="line" smooth="yes"/>
      <point x="78" y="54"/>
      <point x="82" y="105"/>
      <point x="91" y="186" type="curve"/>
      <point x="123" y="138"/>
      <point x="167" y="69"/>
      <point x="167" y="-17" type="curve" smooth="yes"/>
      <point x="167" y="-85"/>
      <point x="149" y="-164"/>
    </contour>
    <contour>
      <point x="28" y="-13" type="curve" smooth="yes"/>
      <point x="28" y="-97"/>
      <point x="37" y="-209"/>
      <point x="110" y="-209" type="curve" smooth="yes"/>
      <point x="182" y="-209"/>
      <point x="212" y="-111"/>
      <point x="212" y="-10" type="curve" smooth="yes"/>
      <point x="212" y="58"/>
      <point x="177" y="131"/>
      <point x="149" y="166" type="curve"/>
      <point x="164" y="162"/>
      <point x="181" y="160"/>
      <point x="198" y="160" type="curve" smooth="yes"/>
      <point x="263" y="160"/>
      <point x="329" y="191"/>
      <point x="334" y="236" type="curve" smooth="yes"/>
      <point x="335" y="244"/>
      <point x="335" y="250"/>
      <point x="330" y="250" type="curve" smooth="yes"/>
      <point x="326" y="250"/>
      <point x="314" y="250"/>
      <point x="300" y="235" type="curve" smooth="yes"/>
      <point x="277" y="213"/>
      <point x="248" y="190"/>
      <point x="198" y="190" type="curve" smooth="yes"/>
      <point x="181" y="190"/>
      <point x="141" y="199"/>
      <point x="129" y="210" type="curve"/>
      <point x="246" y="335"/>
      <point x="352" y="462"/>
      <point x="352" y="576" type="curve" smooth="yes"/>
      <point x="352" y="623"/>
      <point x="329" y="658"/>
      <point x="291" y="658" type="curve" smooth="yes"/>
      <point x="111" y="658"/>
      <point x="28" y="176"/>
    </contour>
  </outline>
</glyph>
<glyph name="g" format="1">
  <advance width="342"/>
  <unicode hex="0067"/>
  <outline>
    <contour>
      <point x="242" y="333" type="move" name="top"/>
    </contour>
    <contour>
      <point x="46" y="-277" type="curve" smooth="yes"/>
      <point x="28" y="-277"/>
      <point x="22" y="-260"/>
      <point x="22" y="-249" type="curve" smooth="yes"/>
      <point x="22" y="-192"/>
      <point x="118" y="-110"/>
      <point x="188" y="-52" type="curve"/>
      <point x="168" y="-138"/>
      <point x="136" y="-277"/>
    </contour>
    <contour>
      <point x="128" y="54" type="curve" smooth="yes"/>
      <point x="92" y="54"/>
      <point x="83" y="86"/>
      <point x="83" y="109" type="curve" smooth="yes"/>
      <point x="83" y="193"/>
      <point x="145" y="283"/>
      <point x="236" y="283" type="curve" smooth="yes"/>
      <point x="241" y="283"/>
      <point x="245" y="282"/>
      <point x="250" y="282" type="curve"/>
      <point x="216" y="158" type="line" smooth="yes"/>
      <point x="207" y="125"/>
      <point x="185" y="54"/>
    </contour>
    <contour>
      <point x="30" y="95" type="curve" smooth="yes"/>
      <point x="30" y="44"/>
      <point x="70" y="9"/>
      <point x="117" y="9" type="curve" smooth="yes"/>
      <point x="155" y="9"/>
      <point x="193" y="31"/>
      <point x="215" y="72" type="curve"/>
      <point x="196" y="-2" type="line"/>
      <point x="156" y="-33"/>
      <point x="102" y="-74"/>
      <point x="57" y="-118" type="curve" smooth="yes"/>
      <point x="13" y="-162"/>
      <point x="-21" y="-209"/>
      <point x="-21" y="-251" type="curve" smooth="yes"/>
      <point x="-21" y="-292"/>
      <point x="-3" y="-321"/>
      <point x="43" y="-321" type="curve" smooth="yes"/>
      <point x="103" y="-321"/>
      <point x="146" y="-290"/>
      <point x="178" y="-236" type="curve" smooth="yes"/>
      <point x="210" y="-183"/>
      <point x="231" y="-107"/>
      <point x="248" y="-20" type="curve"/>
      <point x="320" y="30"/>
      <point x="353" y="57"/>
      <point x="400" y="81" type="curve" smooth="yes"/>
      <point x="412" y="89"/>
      <point x="416" y="98"/>
      <point x="416" y="105" type="curve" smooth="yes"/>
      <point x="416" y="116"/>
      <point x="407" y="124"/>
      <point x="395" y="124" type="curve" smooth="yes"/>
      <point x="393" y="124"/>
      <point x="391" y="123"/>
      <point x="389" y="123" type="curve" smooth="yes"/>
      <point x="339" y="99"/>
      <point x="304" y="66"/>
      <point x="250" y="25" type="curve"/>
      <point x="309" y="282" type="line" smooth="yes"/>
      <point x="311" y="295"/>
      <point x="298" y="304"/>
      <point x="283" y="304" type="curve" smooth="yes"/>
      <point x="278" y="304"/>
      <point x="273" y="303"/>
      <point x="269" y="301" type="curve" smooth="yes"/>
      <point x="269" y="301"/>
      <point x="270" y="303"/>
      <point x="270" y="306" type="curve" smooth="yes"/>
      <point x="270" y="314"/>
      <point x="261" y="325"/>
      <point x="223" y="325" type="curve" smooth="yes"/>
      <point x="122" y="325"/>
      <point x="30" y="213"/>
    </contour>
  </outline>
</glyph>
<glyph name="h" format="1">
  <advance width="381"/>
  <unicode hex="0068"/>
  <outline>
    <contour>
      <point x="270" y="602" type="move" name="top"/>
    </contour>
    <contour>
      <point x="123" y="456" type="move" name="mid"/>
    </contour>
    <contour>
      <point x="263" y="602" type="curve" smooth="yes"/>
      <point x="286" y="602"/>
      <point x="294" y="587"/>
      <point x="294" y="567" type="curve" smooth="yes"/>
      <point x="294" y="506"/>
      <point x="190" y="349"/>
      <point x="101" y="265" type="curve"/>
      <point x="115" y="424"/>
      <point x="202" y="602"/>
    </contour>
    <contour>
      <point x="42" y="71" type="line" smooth="yes"/>
      <point x="42" y="32"/>
      <point x="43" y="-3"/>
      <point x="76" y="-3" type="curve" smooth="yes"/>
      <point x="96" y="-3"/>
      <point x="108" y="14"/>
      <point x="117" y="32" type="curve" smooth="yes"/>
      <point x="154" y="112"/>
      <point x="202" y="176"/>
      <point x="238" y="209" type="curve" smooth="yes"/>
      <point x="274" y="243"/>
      <point x="290" y="257"/>
      <point x="296" y="257" type="curve" smooth="yes"/>
      <point x="298" y="257"/>
      <point x="299" y="256"/>
      <point x="299" y="254" type="curve" smooth="yes"/>
      <point x="299" y="237"/>
      <point x="244" y="146"/>
      <point x="244" y="63" type="curve" smooth="yes"/>
      <point x="244" y="27"/>
      <point x="262" y="0"/>
      <point x="301" y="0" type="curve" smooth="yes"/>
      <point x="303" y="-0" type="line" smooth="yes"/>
      <point x="365" y="0"/>
      <point x="418" y="42"/>
      <point x="455" y="70" type="curve" smooth="yes"/>
      <point x="467" y="79"/>
      <point x="471" y="88"/>
      <point x="471" y="98" type="curve" smooth="yes"/>
      <point x="471" y="113"/>
      <point x="459" y="126"/>
      <point x="454" y="126" type="curve" smooth="yes"/>
      <point x="448" y="126"/>
      <point x="444" y="122"/>
      <point x="437" y="115" type="curve" smooth="yes"/>
      <point x="422" y="100"/>
      <point x="369" y="46"/>
      <point x="323" y="46" type="curve" smooth="yes"/>
      <point x="308" y="46"/>
      <point x="300" y="54"/>
      <point x="300" y="71" type="curve" smooth="yes"/>
      <point x="300" y="123"/>
      <point x="342" y="228"/>
      <point x="359" y="267" type="curve" smooth="yes"/>
      <point x="361" y="273"/>
      <point x="362" y="279"/>
      <point x="362" y="285" type="curve" smooth="yes"/>
      <point x="362" y="307"/>
      <point x="347" y="326"/>
      <point x="323" y="326" type="curve" smooth="yes"/>
      <point x="293" y="326"/>
      <point x="180" y="251"/>
      <point x="91" y="72" type="curve"/>
      <point x="98" y="212" type="line"/>
      <point x="286" y="376"/>
      <point x="345" y="503"/>
      <point x="349" y="580" type="curve" smooth="yes"/>
      <point x="349" y="625"/>
      <point x="322" y="656"/>
      <point x="275" y="656" type="curve" smooth="yes"/>
      <point x="111" y="656"/>
      <point x="42" y="308"/>
      <point x="42" y="114" type="curve" smooth="yes"/>
      <point x="42" y="106" type="line" smooth="yes"/>
    </contour>
  </outline>
</glyph>
<glyph name="j" format="1">
  <advance width="228"/>
  <unicode hex="006A"/>
  <outline>
    <contour>
      <point x="192" y="404" type="curve" smooth="yes"/>
      <point x="224" y="404"/>
      <point x="245" y="422"/>
      <point x="245" y="455" type="curve" smooth="yes"/>
      <point x="245" y="481"/>
      <point x="228" y="493"/>
      <point x="200" y="493" type="curve" smooth="yes"/>
      <point x="167" y="493"/>
      <point x="144" y="475"/>
      <point x="144" y="446" type="curve" smooth="yes"/>
      <point x="144" y="417"/>
      <point x="160" y="404"/>
    </contour>
    <contour>
      <point x="95" y="-166" type="curve" smooth="yes"/>
      <point x="74" y="-166"/>
      <point x="65" y="-135"/>
      <point x="65" y="-76" type="curve" smooth="yes"/>
      <point x="65" y="12"/>
      <point x="96" y="119"/>
      <point x="109" y="155" type="curve"/>
      <point x="150" y="113"/>
      <point x="154" y="60"/>
      <point x="154" y="-7" type="curve" smooth="yes"/>
      <point x="154" y="-92"/>
      <point x="130" y="-166"/>
    </contour>
    <contour>
      <point x="19" y="-56" type="curve" smooth="yes"/>
      <point x="19" y="-135"/>
      <point x="32" y="-209"/>
      <point x="91" y="-209" type="curve" smooth="yes"/>
      <point x="161" y="-209"/>
      <point x="198" y="-111"/>
      <point x="199" y="-19" type="curve" smooth="yes"/>
      <point x="199" y="41"/>
      <point x="189" y="105"/>
      <point x="165" y="135" type="curve"/>
      <point x="241" y="141"/>
      <point x="314" y="149"/>
      <point x="314" y="205" type="curve" smooth="yes"/>
      <point x="314" y="213"/>
      <point x="313" y="216"/>
      <point x="306" y="212" type="curve" smooth="yes"/>
      <point x="268" y="195"/>
      <point x="219" y="173"/>
      <point x="115" y="173" type="curve"/>
      <point x="151" y="254" type="line" smooth="yes"/>
      <point x="154" y="261"/>
      <point x="172" y="296"/>
      <point x="172" y="315" type="curve" smooth="yes"/>
      <point x="172" y="322"/>
      <point x="169" y="327"/>
      <point x="162" y="327" type="curve" smooth="yes"/>
      <point x="139" y="327"/>
      <point x="127" y="316"/>
      <point x="114" y="285" type="curve" smooth="yes"/>
      <point x="81" y="208"/>
      <point x="29" y="93"/>
      <point x="21" y="-1" type="curve" smooth="yes"/>
      <point x="20" y="-19"/>
      <point x="19" y="-38"/>
    </contour>
  </outline>
</glyph>
<glyph name="o" format="1">
  <advance width="302"/>
  <unicode hex="006F"/>
  <outline>
    <contour>
      <point x="222" y="333" type="move" name="top"/>
    </contour>
    <contour>
      <point x="134" y="12" type="move" name="ogonek"/>
    </contour>
    <contour>
      <point x="224" y="158" type="curve"/>
      <point x="221" y="108"/>
      <point x="187" y="41"/>
      <point x="135" y="41" type="curve" smooth="yes"/>
      <point x="89" y="41"/>
      <point x="77" y="78"/>
      <point x="77" y="117" type="curve" smooth="yes"/>
      <point x="77" y="198"/>
      <point x="133" y="286"/>
      <point x="195" y="286" type="curve" smooth="yes"/>
      <point x="222" y="286"/>
      <point x="226" y="260"/>
      <point x="226" y="241" type="curve" smooth="yes"/>
      <point x="226" y="231"/>
      <point x="225" y="223"/>
      <point x="225" y="223" type="curve"/>
      <point x="207" y="218"/>
      <point x="196" y="202"/>
      <point x="196" y="187" type="curve" smooth="yes"/>
      <point x="196" y="173"/>
      <point x="205" y="160"/>
    </contour>
    <contour>
      <point x="119" y="-3" type="curve" smooth="yes"/>
      <point x="218" y="-3"/>
      <point x="262" y="97"/>
      <point x="271" y="158" type="curve"/>
      <point x="314" y="158"/>
      <point x="385" y="193"/>
      <point x="417" y="252" type="curve" smooth="yes"/>
      <point x="419" y="255"/>
      <point x="419" y="257"/>
      <point x="419" y="260" type="curve" smooth="yes"/>
      <point x="419" y="271"/>
      <point x="408" y="282"/>
      <point x="399" y="282" type="curve" smooth="yes"/>
      <point x="396" y="282"/>
      <point x="392" y="280"/>
      <point x="390" y="277" type="curve" smooth="yes"/>
      <point x="351" y="225"/>
      <point x="325" y="209"/>
      <point x="277" y="197" type="curve"/>
      <point x="279" y="209"/>
      <point x="279" y="220"/>
      <point x="279" y="230" type="curve" smooth="yes"/>
      <point x="279" y="295"/>
      <point x="248" y="330"/>
      <point x="194" y="330" type="curve" smooth="yes"/>
      <point x="104" y="330"/>
      <point x="23" y="217"/>
      <point x="23" y="113" type="curve" smooth="yes"/>
      <point x="23" y="48"/>
      <point x="58" y="-3"/>
    </contour>
  </outline>
</glyph>
<glyph name="q" format="1">
  <advance width="333"/>
  <unicode hex="0071"/>
  <outline>
    <contour>
      <point x="198" y="45" type="curve"/>
      <point x="185" y="42"/>
      <point x="173" y="40"/>
      <point x="162" y="40" type="curve" smooth="yes"/>
      <point x="104" y="40"/>
      <point x="78" y="85"/>
      <point x="78" y="136" type="curve" smooth="yes"/>
      <point x="78" y="205"/>
      <point x="125" y="286"/>
      <point x="200" y="286" type="curve" smooth="yes"/>
      <point x="224" y="286"/>
      <point x="255" y="277"/>
      <point x="255" y="265" type="curve" smooth="yes"/>
      <point x="255" y="247.515"/>
      <point x="243.731" y="196.225"/>
      <point x="229.084" y="143.126" type="curve"/>
      <point x="210.549" y="137.399"/>
      <point x="201" y="119.518"/>
      <point x="201" y="103" type="curve" smooth="yes"/>
      <point x="201" y="94.0452"/>
      <point x="203.851" y="85.0905"/>
      <point x="209.979" y="79.3271" type="curve"/>
      <point x="205.955" y="67.0134"/>
      <point x="201.92" y="55.4042"/>
    </contour>
    <contour>
      <point x="265.756" y="86.1979" type="curve"/>
      <point x="309.721" y="90.6889"/>
      <point x="389.823" y="170.673"/>
      <point x="418" y="228" type="curve" smooth="yes"/>
      <point x="419" y="230"/>
      <point x="420" y="233"/>
      <point x="420" y="235" type="curve" smooth="yes"/>
      <point x="420" y="247"/>
      <point x="408" y="258"/>
      <point x="398" y="258" type="curve" smooth="yes"/>
      <point x="394" y="258"/>
      <point x="391" y="256"/>
      <point x="389" y="253" type="curve" smooth="yes"/>
      <point x="354.507" y="203.177"/>
      <point x="324.605" y="151.519"/>
      <point x="280.822" y="137.605" type="curve"/>
      <point x="294.503" y="185.103"/>
      <point x="309" y="240.351"/>
      <point x="309" y="273" type="curve" smooth="yes"/>
      <point x="309" y="295"/>
      <point x="255" y="330"/>
      <point x="195" y="330" type="curve" smooth="yes"/>
      <point x="85" y="326"/>
      <point x="31" y="230"/>
      <point x="31" y="142" type="curve" smooth="yes"/>
      <point x="31" y="67"/>
      <point x="70" y="-2"/>
      <point x="147" y="-2" type="curve" smooth="yes"/>
      <point x="161" y="-2"/>
      <point x="176" y="0"/>
      <point x="192" y="5" type="curve"/>
      <point x="174" y="-64"/>
      <point x="144" y="-162"/>
      <point x="117" y="-242" type="curve" smooth="yes"/>
      <point x="117" y="-243"/>
      <point x="116" y="-245"/>
      <point x="116" y="-246" type="curve" smooth="yes"/>
      <point x="116" y="-258"/>
      <point x="134" y="-270"/>
      <point x="149" y="-270" type="curve" smooth="yes"/>
      <point x="158" y="-270"/>
      <point x="166" y="-265"/>
      <point x="169" y="-254" type="curve" smooth="yes"/>
      <point x="262" y="73" type="line" smooth="yes"/>
      <point x="263.11" y="77.0135"/>
      <point x="264.373" y="81.4355"/>
    </contour>
  </outline>
</glyph>
<glyph name="v" format="1">
  <advance width="300"/>
  <unicode hex="0076"/>
  <outline>
    <contour>
      <point x="419" y="252" type="curve" smooth="yes"/>
      <point x="421" y="255"/>
      <point x="421" y="257"/>
      <point x="421" y="260" type="curve" smooth="yes"/>
      <point x="421" y="271"/>
      <point x="410" y="282"/>
      <point x="401" y="282" type="curve" smooth="yes"/>
      <point x="398" y="282"/>
      <point x="394" y="280"/>
      <point x="392" y="277" type="curve" smooth="yes"/>
      <point x="358.869" y="232.826"/>
      <point x="328.279" y="204.743"/>
      <point x="277.626" y="200.548" type="curve"/>
      <point x="289.06" y="228.89"/>
      <point x="298.976" y="259.446"/>
      <point x="307" y="292" type="curve" smooth="yes"/>
      <point x="308" y="295"/>
      <point x="308" y="298"/>
      <point x="308" y="301" type="curve" smooth="yes"/>
      <point x="308" y="314"/>
      <point x="299" y="322"/>
      <point x="287" y="322" type="curve" smooth="yes"/>
      <point x="261" y="322"/>
      <point x="221" y="287"/>
      <point x="221" y="199" type="curve" smooth="yes"/>
      <point x="221" y="193"/>
      <point x="222" y="187"/>
      <point x="222" y="181" type="curve" smooth="yes"/>
      <point x="184" y="96"/>
      <point x="128" y="47"/>
      <point x="124" y="47" type="curve" smooth="yes"/>
      <point x="112" y="47"/>
      <point x="94" y="84"/>
      <point x="94" y="158" type="curve" smooth="yes"/>
      <point x="94" y="195"/>
      <point x="110" y="244"/>
      <point x="110" y="298" type="curve" smooth="yes"/>
      <point x="110" y="311"/>
      <point x="99" y="321"/>
      <point x="87" y="321" type="curve" smooth="yes"/>
      <point x="77" y="321"/>
      <point x="67" y="315"/>
      <point x="62" y="300" type="curve" smooth="yes"/>
      <point x="46" y="247"/>
      <point x="39" y="198"/>
      <point x="39" y="156" type="curve" smooth="yes"/>
      <point x="39" y="56"/>
      <point x="77" y="-6"/>
      <point x="110" y="-6" type="curve" smooth="yes"/>
      <point x="115" y="-6"/>
      <point x="120" y="-5"/>
      <point x="125" y="-2" type="curve" smooth="yes"/>
      <point x="174.617" y="29.3368"/>
      <point x="222.102" y="84.5417"/>
      <point x="258.831" y="158.606" type="curve" smooth="yes"/>
      <point x="262.76" y="158.177"/>
      <point x="266.791" y="158"/>
      <point x="271" y="158" type="curve" smooth="yes"/>
      <point x="329" y="158"/>
      <point x="392" y="201"/>
    </contour>
  </outline>
</glyph>
<glyph name="w" format="1">
  <advance width="565"/>
  <unicode hex="0077"/>
  <outline>
    <contour>
      <point x="362" y="333" type="move" name="top"/>
    </contour>
    <contour>
      <point x="582" y="296" type="curve" smooth="yes"/>
      <point x="582" y="348"/>
      <point x="552" y="372"/>
      <point x="510" y="372" type="curve" smooth="yes"/>
      <point x="460" y="372"/>
      <point x="435" y="336"/>
      <point x="435" y="297" type="curve" smooth="yes"/>
      <point x="435" y="257.744"/>
      <point x="460.49" y="216.303"/>
      <point x="510.848" y="204.996" type="curve"/>
      <point x="505.109" y="191.601"/>
      <point x="498.216" y="176.962"/>
      <point x="490" y="161" type="curve" smooth="yes"/>
      <point x="458" y="107"/>
      <point x="408" y="38"/>
      <point x="353" y="32" type="curve" smooth="yes"/>
      <point x="349" y="32" type="line" smooth="yes"/>
      <point x="325" y="32"/>
      <point x="305" y="56"/>
      <point x="305" y="121" type="curve" smooth="yes"/>
      <point x="305" y="147"/>
      <point x="379" y="235"/>
      <point x="379" y="284" type="curve" smooth="yes"/>
      <point x="379" y="304"/>
      <point x="367" y="317"/>
      <point x="333" y="317" type="curve" smooth="yes"/>
      <point x="309.822" y="316.276"/>
      <point x="284.545" y="267.809"/>
      <point x="272.37" y="198.581" type="curve"/>
      <point x="266" y="181" type="line"/>
      <point x="234" y="128"/>
      <point x="181" y="38"/>
      <point x="126" y="32" type="curve" smooth="yes"/>
      <point x="121" y="32" type="line" smooth="yes"/>
      <point x="98" y="32"/>
      <point x="83" y="52"/>
      <point x="83" y="108" type="curve" smooth="yes"/>
      <point x="83" y="225"/>
      <point x="147" y="301"/>
      <point x="153" y="310" type="curve" smooth="yes"/>
      <point x="154" y="312"/>
      <point x="155" y="314"/>
      <point x="155" y="316" type="curve" smooth="yes"/>
      <point x="155" y="325"/>
      <point x="145" y="335"/>
      <point x="132" y="335" type="curve" smooth="yes"/>
      <point x="123" y="335"/>
      <point x="112" y="330"/>
      <point x="101" y="314" type="curve" smooth="yes"/>
      <point x="88" y="296"/>
      <point x="33" y="222"/>
      <point x="33" y="112" type="curve" smooth="yes"/>
      <point x="33" y="27"/>
      <point x="61" y="-18"/>
      <point x="117" y="-18" type="curve" smooth="yes"/>
      <point x="174.049" y="-15.718"/>
      <point x="221.262" y="33.4296"/>
      <point x="265.24" y="97.3154" type="curve"/>
      <point x="267.765" y="22.654"/>
      <point x="290.474" y="-18"/>
      <point x="345" y="-18" type="curve" smooth="yes"/>
      <point x="419" y="-15"/>
      <point x="473" y="48"/>
      <point x="528" y="139" type="curve" smooth="yes"/>
      <point x="541.039" y="162.333"/>
      <point x="551.488" y="183.783"/>
      <point x="559.589" y="203.389" type="curve"/>
      <point x="593.908" y="207.897"/>
      <point x="635.19" y="223.736"/>
      <point x="684" y="256" type="curve" smooth="yes"/>
      <point x="691" y="260"/>
      <point x="693" y="266"/>
      <point x="693" y="272" type="curve" smooth="yes"/>
      <point x="693" y="282"/>
      <point x="686" y="291"/>
      <point x="677" y="291" type="curve" smooth="yes"/>
      <point x="674" y="291"/>
      <point x="670" y="290"/>
      <point x="667" y="288" type="curve" smooth="yes"/>
      <point x="629.785" y="262.288"/>
      <point x="598.523" y="247.564"/>
      <point x="572.902" y="240.73" type="curve"/>
      <point x="579.12" y="261.904"/>
      <point x="582" y="280.302"/>
    </contour>
    <contour>
      <point x="523.444" y="237.556" type="curve"/>
      <point x="490.292" y="244.156"/>
      <point x="476" y="270.582"/>
      <point x="476" y="294" type="curve" smooth="yes"/>
      <point x="476" y="317"/>
      <point x="489" y="337"/>
      <point x="513" y="337" type="curve" smooth="yes"/>
      <point x="523" y="337"/>
      <point x="536" y="329"/>
      <point x="536" y="299" type="curve" smooth="yes"/>
      <point x="536" y="284.48"/>
      <point x="532.57" y="264.347"/>
    </contour>
  </outline>
</glyph>
<glyph name="x" format="1">
  <advance width="326"/>
  <unicode hex="0078"/>
  <outline>
    <contour>
      <point x="270" y="-4" type="curve" smooth="yes"/>
      <point x="281" y="-7"/>
      <point x="291" y="-9"/>
      <point x="300" y="-9" type="curve" smooth="yes"/>
      <point x="367" y="-9"/>
      <point x="396" y="66"/>
      <point x="414" y="98" type="curve" smooth="yes"/>
      <point x="418" y="104"/>
      <point x="419" y="110"/>
      <point x="419" y="115" type="curve" smooth="yes"/>
      <point x="419" y="124"/>
      <point x="414" y="130"/>
      <point x="408" y="130" type="curve" smooth="yes"/>
      <point x="404" y="130"/>
      <point x="398" y="127"/>
      <point x="393" y="120" type="curve" smooth="yes"/>
      <point x="376" y="97"/>
      <point x="344" y="32"/>
      <point x="295" y="32" type="curve" smooth="yes"/>
      <point x="263.472" y="32"/>
      <point x="229.899" y="65.4064"/>
      <point x="184.528" y="132.219" type="curve"/>
      <point x="291" y="264" type="line" smooth="yes"/>
      <point x="306" y="283"/>
      <point x="321" y="289"/>
      <point x="334" y="289" type="curve" smooth="yes"/>
      <point x="351" y="289"/>
      <point x="365" y="279"/>
      <point x="373" y="279" type="curve" smooth="yes"/>
      <point x="380" y="279"/>
      <point x="381" y="291"/>
      <point x="381" y="297" type="curve" smooth="yes"/>
      <point x="381" y="320"/>
      <point x="361" y="333"/>
      <point x="337" y="333" type="curve" smooth="yes"/>
      <point x="318" y="333"/>
      <point x="297" y="325"/>
      <point x="281" y="305" type="curve" smooth="yes"/>
      <point x="164.941" y="161.95" type="line"/>
      <point x="136.909" y="205.625"/>
      <point x="104.544" y="260.308"/>
      <point x="66" y="326" type="curve" smooth="yes"/>
      <point x="65" y="327"/>
      <point x="64" y="328"/>
      <point x="62" y="328" type="curve" smooth="yes"/>
      <point x="53" y="328"/>
      <point x="34" y="318"/>
      <point x="34" y="305" type="curve" smooth="yes"/>
      <point x="34" y="303"/>
      <point x="35" y="300"/>
      <point x="36" y="298" type="curve" smooth="yes"/>
      <point x="75.4663" y="230.072"/>
      <point x="107.876" y="173.233"/>
      <point x="137.001" y="127.702" type="curve"/>
      <point x="104.981" y="88.6095"/>
      <point x="73.6263" y="50.7059"/>
      <point x="52" y="36" type="curve" smooth="yes"/>
      <point x="44" y="31"/>
      <point x="41" y="23"/>
      <point x="41" y="16" type="curve" smooth="yes"/>
      <point x="41" y="2"/>
      <point x="53" y="-12"/>
      <point x="66" y="-12" type="curve" smooth="yes"/>
      <point x="72" y="-12"/>
      <point x="79" y="-9"/>
      <point x="85" y="0" type="curve" smooth="yes"/>
      <point x="104.846" y="31.064"/>
      <point x="131.394" y="65.1063"/>
      <point x="156.933" y="97.6295" type="curve"/>
      <point x="195.884" y="41.2451"/>
      <point x="230.114" y="7.1681"/>
    </contour>
  </outline>
</glyph>
<glyph name="sterling" format="1">
  <advance width="514"/>
  <unicode hex="00A3"/>
  <outline>
    <contour>
      <point x="219" y="-5" type="line" smooth="yes"/>
      <point x="419" y="8" type="line" smooth="yes"/>
      <point x="443" y="9"/>
      <point x="454" y="22"/>
      <point x="454" y="34" type="curve" smooth="yes"/>
      <point x="454" y="44"/>
      <point x="444" y="53"/>
      <point x="425" y="53" type="curve" smooth="yes"/>
      <point x="422" y="53" type="line" smooth="yes"/>
      <point x="220" y="39" type="line"/>
      <point x="223" y="66"/>
      <point x="245" y="227"/>
      <point x="254" y="283" type="curve"/>
      <point x="363" y="283" type="line" smooth="yes"/>
      <point x="391" y="283"/>
      <point x="407" y="288"/>
      <point x="407" y="304" type="curve" smooth="yes"/>
      <point x="407" y="327"/>
      <point x="390" y="329"/>
      <point x="364" y="329" type="curve" smooth="yes"/>
      <point x="261" y="329" type="line"/>
      <point x="286" y="478"/>
      <point x="293" y="549"/>
      <point x="392" y="549" type="curve" smooth="yes"/>
      <point x="427" y="549"/>
      <point x="455" y="524"/>
      <point x="455" y="482" type="curve" smooth="yes"/>
      <point x="455" y="471"/>
      <point x="466" y="462"/>
      <point x="480" y="462" type="curve" smooth="yes"/>
      <point x="498" y="462"/>
      <point x="506" y="475"/>
      <point x="506" y="497" type="curve" smooth="yes"/>
      <point x="506" y="565"/>
      <point x="461" y="594"/>
      <point x="391" y="594" type="curve" smooth="yes"/>
      <point x="258" y="594"/>
      <point x="233" y="508"/>
      <point x="212" y="329" type="curve"/>
      <point x="156" y="329" type="line" smooth="yes"/>
      <point x="132" y="329"/>
      <point x="121" y="327"/>
      <point x="121" y="307" type="curve" smooth="yes"/>
      <point x="121" y="291"/>
      <point x="131" y="283"/>
      <point x="147" y="283" type="curve" smooth="yes"/>
      <point x="206" y="283" type="line"/>
      <point x="176" y="91" type="line" smooth="yes"/>
      <point x="171" y="77"/>
      <point x="166" y="58"/>
      <point x="166" y="41" type="curve" smooth="yes"/>
      <point x="166" y="9"/>
      <point x="184" y="-5"/>
      <point x="213" y="-5" type="curve" smooth="yes"/>
    </contour>
  </outline>
</glyph>
<glyph name="ordfeminine" format="1">
  <advance width="317"/>
  <unicode hex="00AA"/>
  <outline>
    <contour>
      <point x="121" y="323" type="curve" smooth="yes"/>
      <point x="95" y="323"/>
      <point x="89" y="350"/>
      <point x="89" y="371" type="curve" smooth="yes"/>
      <point x="89" y="428"/>
      <point x="128" y="510"/>
      <point x="189" y="510" type="curve" smooth="yes"/>
      <point x="193" y="510"/>
      <point x="196" y="510"/>
      <point x="200" y="509" type="curve"/>
      <point x="180" y="413" type="line" smooth="yes"/>
      <point x="174" y="385"/>
      <point x="160" y="323"/>
    </contour>
    <contour>
      <point x="243" y="282" type="curve" smooth="yes"/>
      <point x="292" y="282"/>
      <point x="344" y="347"/>
      <point x="339" y="362" type="curve" smooth="yes"/>
      <point x="334" y="382" type="line" smooth="yes"/>
      <point x="333" y="385"/>
      <point x="332" y="387"/>
      <point x="330" y="387" type="curve" smooth="yes"/>
      <point x="319" y="387"/>
      <point x="292" y="332"/>
      <point x="252" y="332" type="curve" smooth="yes"/>
      <point x="231" y="332"/>
      <point x="231" y="356"/>
      <point x="231" y="371" type="curve" smooth="yes"/>
      <point x="231" y="422"/>
      <point x="250" y="462"/>
      <point x="250" y="508" type="curve" smooth="yes"/>
      <point x="250" y="527"/>
      <point x="241" y="527"/>
      <point x="233" y="527" type="curve" smooth="yes"/>
      <point x="194" y="527"/>
      <point x="214" y="549"/>
      <point x="194" y="549" type="curve" smooth="yes"/>
      <point x="182" y="549"/>
      <point x="163" y="549"/>
      <point x="137" y="537" type="curve" smooth="yes"/>
      <point x="84" y="514"/>
      <point x="30" y="443"/>
      <point x="30" y="358" type="curve" smooth="yes"/>
      <point x="30" y="315"/>
      <point x="56" y="283"/>
      <point x="96" y="283" type="curve" smooth="yes"/>
      <point x="140" y="283"/>
      <point x="179" y="316"/>
      <point x="191" y="339" type="curve"/>
      <point x="202" y="310"/>
      <point x="213" y="282"/>
    </contour>
  </outline>
</glyph>
<glyph name="onequarter" format="1">
  <advance width="967"/>
  <unicode hex="00BC"/>
  <outline>
    <contour>
      <point x="171" y="215" type="curve" smooth="yes"/>
      <point x="202" y="375"/>
      <point x="249" y="622"/>
      <point x="255" y="653" type="curve" smooth="yes"/>
      <point x="256" y="660"/>
      <point x="257" y="666"/>
      <point x="257" y="672" type="curve" smooth="yes"/>
      <point x="257" y="687"/>
      <point x="253" y="697"/>
      <point x="241" y="697" type="curve" smooth="yes"/>
      <point x="236" y="697" type="line" smooth="yes"/>
      <point x="201" y="690"/>
      <point x="157" y="676"/>
      <point x="129" y="667" type="curve" smooth="yes"/>
      <point x="118" y="664"/>
      <point x="113" y="653"/>
      <point x="113" y="642" type="curve" smooth="yes"/>
      <point x="113" y="631"/>
      <point x="118" y="619"/>
      <point x="129" y="619" type="curve" smooth="yes"/>
      <point x="131" y="619"/>
      <point x="132" y="620"/>
      <point x="134" y="620" type="curve" smooth="yes"/>
      <point x="147" y="624"/>
      <point x="186" y="634"/>
      <point x="202" y="640" type="curve"/>
      <point x="171" y="479"/>
      <point x="167" y="447"/>
      <point x="121" y="228" type="curve" smooth="yes"/>
      <point x="121" y="226"/>
      <point x="120" y="224"/>
      <point x="120" y="222" type="curve" smooth="yes"/>
      <point x="120" y="208"/>
      <point x="133" y="202"/>
      <point x="146" y="202" type="curve" smooth="yes"/>
      <point x="158" y="202"/>
      <point x="169" y="207"/>
    </contour>
    <contour>
      <point x="344" y="5" type="curve" smooth="yes"/>
      <point x="594" y="564" type="line" smooth="yes"/>
      <point x="596" y="569"/>
      <point x="597" y="574"/>
      <point x="597" y="579" type="curve" smooth="yes"/>
      <point x="597" y="594"/>
      <point x="588" y="605"/>
      <point x="576" y="605" type="curve" smooth="yes"/>
      <point x="567" y="605"/>
      <point x="556" y="598"/>
      <point x="547" y="580" type="curve" smooth="yes"/>
      <point x="296" y="28" type="line" smooth="yes"/>
      <point x="292" y="20"/>
      <point x="290" y="12"/>
      <point x="290" y="6" type="curve" smooth="yes"/>
      <point x="290" y="-9"/>
      <point x="301" y="-17"/>
      <point x="313" y="-17" type="curve" smooth="yes"/>
      <point x="325" y="-17"/>
      <point x="338" y="-10"/>
    </contour>
    <contour>
      <point x="779" y="-19" type="line" smooth="yes"/>
      <point x="786" y="-19"/>
      <point x="796" y="-13"/>
      <point x="799" y="3" type="curve" smooth="yes"/>
      <point x="815" y="83" type="line"/>
      <point x="829" y="83"/>
      <point x="859" y="82"/>
      <point x="881" y="82" type="curve" smooth="yes"/>
      <point x="896" y="82" type="line" smooth="yes"/>
      <point x="910" y="83"/>
      <point x="916" y="99"/>
      <point x="916" y="111" type="curve" smooth="yes"/>
      <point x="916" y="118"/>
      <point x="914" y="124"/>
      <point x="909" y="124" type="curve" smooth="yes"/>
      <point x="897" y="124"/>
      <point x="883" y="122"/>
      <point x="826" y="122" type="curve"/>
      <point x="831" y="145"/>
      <point x="869" y="278"/>
      <point x="869" y="315" type="curve" smooth="yes"/>
      <point x="869" y="323"/>
      <point x="863" y="329"/>
      <point x="849" y="329" type="curve" smooth="yes"/>
      <point x="829" y="329"/>
      <point x="823" y="320"/>
      <point x="819" y="306" type="curve" smooth="yes"/>
      <point x="812" y="278"/>
      <point x="781" y="142"/>
      <point x="779" y="132" type="curve"/>
      <point x="767" y="124"/>
      <point x="742" y="122"/>
      <point x="718" y="122" type="curve" smooth="yes"/>
      <point x="693" y="122"/>
      <point x="669" y="124"/>
      <point x="664" y="124" type="curve"/>
      <point x="690" y="202"/>
      <point x="753" y="386"/>
      <point x="777" y="464" type="curve" smooth="yes"/>
      <point x="778" y="466"/>
      <point x="778" y="467"/>
      <point x="778" y="469" type="curve" smooth="yes"/>
      <point x="778" y="479"/>
      <point x="767" y="487"/>
      <point x="756" y="487" type="curve" smooth="yes"/>
      <point x="746" y="487"/>
      <point x="736" y="481"/>
      <point x="730" y="465" type="curve" smooth="yes"/>
      <point x="702" y="388"/>
      <point x="640" y="202"/>
      <point x="615" y="126" type="curve" smooth="yes"/>
      <point x="610" y="113"/>
      <point x="608" y="103"/>
      <point x="608" y="96" type="curve" smooth="yes"/>
      <point x="608" y="83"/>
      <point x="615" y="79"/>
      <point x="629" y="79" type="curve" smooth="yes"/>
      <point x="680" y="79"/>
      <point x="708" y="82"/>
      <point x="768" y="82" type="curve"/>
      <point x="752" y="9" type="line" smooth="yes"/>
      <point x="752" y="7"/>
      <point x="751" y="4"/>
      <point x="751" y="2" type="curve" smooth="yes"/>
      <point x="751" y="-13"/>
      <point x="763" y="-19"/>
      <point x="776" y="-19" type="curve" smooth="yes"/>
    </contour>
  </outline>
</glyph>
<glyph name="threequarters" format="1">
  <advance width="1052"/>
  <unicode hex="00BE"/>
  <outline>
    <contour>
      <point x="313" y="351" type="curve" smooth="yes"/>
      <point x="313" y="272"/>
      <point x="250" y="234"/>
      <point x="189" y="234" type="curve" smooth="yes"/>
      <point x="149" y="234"/>
      <point x="110" y="250"/>
      <point x="88" y="281" type="curve" smooth="yes"/>
      <point x="75" y="301"/>
      <point x="63" y="308"/>
      <point x="54" y="308" type="curve" smooth="yes"/>
      <point x="42" y="308"/>
      <point x="35" y="296"/>
      <point x="35" y="287" type="curve" smooth="yes"/>
      <point x="35" y="285"/>
      <point x="35" y="284"/>
      <point x="36" y="282" type="curve" smooth="yes"/>
      <point x="49" y="245"/>
      <point x="107" y="192"/>
      <point x="201" y="192" type="curve" smooth="yes"/>
      <point x="299" y="192"/>
      <point x="364" y="255"/>
      <point x="364" y="342" type="curve" smooth="yes"/>
      <point x="364" y="414"/>
      <point x="340" y="456"/>
      <point x="266" y="479" type="curve"/>
      <point x="316" y="494"/>
      <point x="360" y="532"/>
      <point x="360" y="592" type="curve" smooth="yes"/>
      <point x="360" y="658"/>
      <point x="303" y="695"/>
      <point x="232" y="695" type="curve" smooth="yes"/>
      <point x="175" y="695"/>
      <point x="134" y="677"/>
      <point x="103" y="632" type="curve" smooth="yes"/>
      <point x="102" y="630"/>
      <point x="101" y="628"/>
      <point x="101" y="626" type="curve" smooth="yes"/>
      <point x="101" y="617"/>
      <point x="111" y="608"/>
      <point x="121" y="608" type="curve" smooth="yes"/>
      <point x="126" y="608"/>
      <point x="130" y="610"/>
      <point x="134" y="615" type="curve" smooth="yes"/>
      <point x="155" y="643"/>
      <point x="193" y="657"/>
      <point x="228" y="657" type="curve" smooth="yes"/>
      <point x="272" y="657"/>
      <point x="312" y="636"/>
      <point x="312" y="595" type="curve" smooth="yes"/>
      <point x="312" y="535"/>
      <point x="267" y="493"/>
      <point x="158" y="493" type="curve" smooth="yes"/>
      <point x="142" y="493"/>
      <point x="135" y="485"/>
      <point x="135" y="477" type="curve" smooth="yes"/>
      <point x="135" y="469"/>
      <point x="143" y="461"/>
      <point x="153" y="461" type="curve" smooth="yes"/>
      <point x="243" y="461"/>
      <point x="313" y="439"/>
    </contour>
    <contour>
      <point x="377" y="5" type="curve" smooth="yes"/>
      <point x="627" y="564" type="line" smooth="yes"/>
      <point x="630" y="569"/>
      <point x="631" y="575"/>
      <point x="631" y="580" type="curve" smooth="yes"/>
      <point x="631" y="595"/>
      <point x="621" y="605"/>
      <point x="609" y="605" type="curve" smooth="yes"/>
      <point x="600" y="605"/>
      <point x="589" y="598"/>
      <point x="581" y="580" type="curve" smooth="yes"/>
      <point x="329" y="28" type="line" smooth="yes"/>
      <point x="325" y="20"/>
      <point x="324" y="13"/>
      <point x="324" y="7" type="curve" smooth="yes"/>
      <point x="324" y="-9"/>
      <point x="334" y="-17"/>
      <point x="346" y="-17" type="curve" smooth="yes"/>
      <point x="357" y="-17"/>
      <point x="371" y="-10"/>
    </contour>
    <contour>
      <point x="789" y="-19" type="line" smooth="yes"/>
      <point x="796" y="-19"/>
      <point x="806" y="-13"/>
      <point x="809" y="3" type="curve" smooth="yes"/>
      <point x="825" y="83" type="line"/>
      <point x="840" y="83"/>
      <point x="869" y="82"/>
      <point x="891" y="82" type="curve" smooth="yes"/>
      <point x="906" y="82" type="line" smooth="yes"/>
      <point x="920" y="83"/>
      <point x="927" y="99"/>
      <point x="927" y="111" type="curve" smooth="yes"/>
      <point x="927" y="118"/>
      <point x="924" y="124"/>
      <point x="919" y="124" type="curve" smooth="yes"/>
      <point x="908" y="124"/>
      <point x="895" y="122"/>
      <point x="836" y="122" type="curve"/>
      <point x="841" y="145"/>
      <point x="879" y="278"/>
      <point x="879" y="315" type="curve" smooth="yes"/>
      <point x="879" y="323"/>
      <point x="873" y="329"/>
      <point x="859" y="329" type="curve" smooth="yes"/>
      <point x="839" y="329"/>
      <point x="833" y="320"/>
      <point x="829" y="306" type="curve" smooth="yes"/>
      <point x="822" y="278"/>
      <point x="790" y="135"/>
      <point x="788" y="125" type="curve"/>
      <point x="774" y="125"/>
      <point x="683" y="124"/>
      <point x="674" y="124" type="curve"/>
      <point x="700" y="202"/>
      <point x="764" y="386"/>
      <point x="788" y="464" type="curve" smooth="yes"/>
      <point x="788" y="465"/>
      <point x="789" y="467"/>
      <point x="789" y="468" type="curve" smooth="yes"/>
      <point x="789" y="478"/>
      <point x="778" y="487"/>
      <point x="766" y="487" type="curve" smooth="yes"/>
      <point x="756" y="487"/>
      <point x="746" y="481"/>
      <point x="741" y="465" type="curve" smooth="yes"/>
      <point x="712" y="388"/>
      <point x="650" y="202"/>
      <point x="625" y="126" type="curve" smooth="yes"/>
      <point x="620" y="113"/>
      <point x="618" y="103"/>
      <point x="618" y="96" type="curve" smooth="yes"/>
      <point x="618" y="83"/>
      <point x="626" y="79"/>
      <point x="640" y="79" type="curve" smooth="yes"/>
      <point x="690" y="79"/>
      <point x="718" y="82"/>
      <point x="778" y="82" type="curve"/>
      <point x="763" y="9" type="line" smooth="yes"/>
      <point x="762" y="6"/>
      <point x="762" y="3"/>
      <point x="762" y="1" type="curve" smooth="yes"/>
      <point x="762" y="-13"/>
      <point x="773" y="-19"/>
      <point x="786" y="-19" type="curve" smooth="yes"/>
    </contour>
  </outline>
</glyph>
<glyph name="germandbls" format="1">
  <advance width="438"/>
  <unicode hex="00DF"/>
  <outline>
    <contour>
      <point x="166" y="37" type="curve" smooth="yes"/>
      <point x="166" y="15"/>
      <point x="182" y="11"/>
      <point x="236" y="11" type="curve" smooth="yes"/>
      <point x="335" y="11"/>
      <point x="421" y="80"/>
      <point x="421" y="155" type="curve" smooth="yes"/>
      <point x="421" y="234"/>
      <point x="377" y="277"/>
      <point x="281" y="285" type="curve"/>
      <point x="367" y="287"/>
      <point x="432" y="343"/>
      <point x="432" y="424" type="curve" smooth="yes"/>
      <point x="432" y="496"/>
      <point x="364" y="536"/>
      <point x="285" y="536" type="curve" smooth="yes"/>
      <point x="258" y="536"/>
      <point x="234" y="532"/>
      <point x="213" y="523" type="curve" smooth="yes"/>
      <point x="52" y="458"/>
      <point x="32" y="207"/>
      <point x="32" y="-23" type="curve" smooth="yes"/>
      <point x="32" y="-37"/>
      <point x="47" y="-44"/>
      <point x="65" y="-44" type="curve" smooth="yes"/>
      <point x="87" y="-44"/>
      <point x="103" y="-33"/>
      <point x="103" y="-13" type="curve" smooth="yes"/>
      <point x="103" y="54" type="line" smooth="yes"/>
      <point x="103" y="223"/>
      <point x="104" y="490"/>
      <point x="286" y="490" type="curve" smooth="yes"/>
      <point x="332" y="490"/>
      <point x="375" y="471"/>
      <point x="375" y="421" type="curve" smooth="yes"/>
      <point x="375" y="349"/>
      <point x="284" y="311"/>
      <point x="214" y="311" type="curve" smooth="yes"/>
      <point x="191" y="311"/>
      <point x="188" y="302"/>
      <point x="188" y="289" type="curve" smooth="yes"/>
      <point x="188" y="275"/>
      <point x="195" y="269"/>
      <point x="206" y="264" type="curve" smooth="yes"/>
      <point x="254" y="243"/>
      <point x="365" y="256"/>
      <point x="365" y="167" type="curve" smooth="yes"/>
      <point x="365" y="103"/>
      <point x="296" y="62"/>
      <point x="224" y="62" type="curve" smooth="yes"/>
      <point x="215" y="62"/>
      <point x="202" y="63"/>
      <point x="195" y="63" type="curve" smooth="yes"/>
      <point x="173" y="63"/>
      <point x="166" y="58"/>
    </contour>
  </outline>
</glyph>
<glyph name="kgreenlandic" format="1">
  <advance width="419"/>
  <unicode hex="0138"/>
  <outline>
    <contour>
      <point x="186" y="374" type="curve" smooth="yes"/>
      <point x="193" y="374"/>
      <point x="197" y="372"/>
      <point x="197" y="366" type="curve" smooth="yes"/>
      <point x="197" y="343"/>
      <point x="136" y="279"/>
      <point x="110" y="259" type="curve"/>
      <point x="120" y="315"/>
      <point x="149" y="374"/>
    </contour>
    <contour>
      <point x="408" y="254" type="curve" smooth="yes"/>
      <point x="408" y="301"/>
      <point x="380" y="329"/>
      <point x="337" y="329" type="curve" smooth="yes"/>
      <point x="285" y="329"/>
      <point x="244" y="310"/>
      <point x="96" y="74" type="curve"/>
      <point x="96" y="107"/>
      <point x="100" y="162"/>
      <point x="106" y="209" type="curve"/>
      <point x="196" y="278"/>
      <point x="248" y="343"/>
      <point x="248" y="381" type="curve" smooth="yes"/>
      <point x="248" y="404"/>
      <point x="230" y="417"/>
      <point x="191" y="417" type="curve" smooth="yes"/>
      <point x="77" y="417"/>
      <point x="66" y="249"/>
      <point x="50" y="112" type="curve"/>
      <point x="50" y="8"/>
      <point x="63" y="-3"/>
      <point x="77" y="-3" type="curve" smooth="yes"/>
      <point x="125" y="-3"/>
      <point x="242" y="273"/>
      <point x="321" y="280" type="curve" smooth="yes"/>
      <point x="324" y="280" type="line" smooth="yes"/>
      <point x="351" y="280"/>
      <point x="356" y="257"/>
      <point x="356" y="243" type="curve" smooth="yes"/>
      <point x="356" y="199"/>
      <point x="224" y="138"/>
      <point x="224" y="61" type="curve" smooth="yes"/>
      <point x="224" y="6"/>
      <point x="265" y="-3"/>
      <point x="298" y="-3" type="curve" smooth="yes"/>
      <point x="354" y="-3"/>
      <point x="431" y="36"/>
      <point x="487" y="120" type="curve" smooth="yes"/>
      <point x="491" y="125"/>
      <point x="492" y="131"/>
      <point x="492" y="137" type="curve" smooth="yes"/>
      <point x="492" y="149"/>
      <point x="485" y="161"/>
      <point x="474" y="161" type="curve"/>
      <point x="474" y="161"/>
      <point x="395" y="42"/>
      <point x="309" y="42" type="curve" smooth="yes"/>
      <point x="292" y="42"/>
      <point x="279" y="53"/>
      <point x="280" y="71" type="curve" smooth="yes"/>
      <point x="287" y="130"/>
      <point x="408" y="164"/>
    </contour>
  </outline>
</glyph>
<glyph name="Eng" format="1">
  <advance width="538"/>
  <unicode hex="014A"/>
  <outline>
    <contour>
      <point x="147" y="-266" type="curve" smooth="yes"/>
      <point x="127" y="-266"/>
      <point x="120" y="-253"/>
      <point x="120" y="-238" type="curve" smooth="yes"/>
      <point x="120" y="-181"/>
      <point x="235" y="-103"/>
      <point x="310" y="-51" type="curve"/>
      <point x="280" y="-133"/>
      <point x="232" y="-266"/>
    </contour>
    <contour>
      <point x="76" y="-250" type="curve" smooth="yes"/>
      <point x="76" y="-288"/>
      <point x="96" y="-310"/>
      <point x="143" y="-310" type="curve" smooth="yes"/>
      <point x="256" y="-310"/>
      <point x="321" y="-193"/>
      <point x="374" y="-27" type="curve"/>
      <point x="451" y="18"/>
      <point x="486" y="46"/>
      <point x="537" y="66" type="curve" smooth="yes"/>
      <point x="550" y="74"/>
      <point x="555" y="83"/>
      <point x="555" y="91" type="curve" smooth="yes"/>
      <point x="555" y="101"/>
      <point x="546" y="109"/>
      <point x="534" y="109" type="curve" smooth="yes"/>
      <point x="530" y="109" type="line" smooth="yes"/>
      <point x="478" y="88"/>
      <point x="445" y="55"/>
      <point x="386" y="19" type="curve"/>
      <point x="453" y="196"/>
      <point x="520" y="399"/>
      <point x="520" y="502" type="curve" smooth="yes"/>
      <point x="520" y="550"/>
      <point x="484" y="592"/>
      <point x="422" y="592" type="curve" smooth="yes"/>
      <point x="309" y="592"/>
      <point x="219" y="432"/>
      <point x="149" y="265" type="curve"/>
      <point x="161" y="329"/>
      <point x="174" y="404"/>
      <point x="174" y="461" type="curve" smooth="yes"/>
      <point x="174" y="531"/>
      <point x="156" y="583"/>
      <point x="96" y="583" type="curve" smooth="yes"/>
      <point x="51" y="583"/>
      <point x="15" y="547"/>
      <point x="-9" y="507" type="curve" smooth="yes"/>
      <point x="-13" y="500"/>
      <point x="-15" y="493"/>
      <point x="-15" y="487" type="curve" smooth="yes"/>
      <point x="-15" y="476"/>
      <point x="-9" y="470"/>
      <point x="0" y="470" type="curve" smooth="yes"/>
      <point x="6" y="470"/>
      <point x="14" y="473"/>
      <point x="20" y="481" type="curve" smooth="yes"/>
      <point x="52" y="522"/>
      <point x="71" y="540"/>
      <point x="92" y="541" type="curve" smooth="yes"/>
      <point x="122" y="541"/>
      <point x="125" y="499"/>
      <point x="125" y="464" type="curve" smooth="yes"/>
      <point x="125" y="349"/>
      <point x="90" y="157"/>
      <point x="42" y="23" type="curve" smooth="yes"/>
      <point x="41" y="20"/>
      <point x="40" y="17"/>
      <point x="40" y="13" type="curve" smooth="yes"/>
      <point x="40" y="0"/>
      <point x="48" y="-16"/>
      <point x="68" y="-16" type="curve" smooth="yes"/>
      <point x="82" y="-16"/>
      <point x="95" y="-7"/>
      <point x="99" y="9" type="curve" smooth="yes"/>
      <point x="166" y="247"/>
      <point x="338" y="540"/>
      <point x="419" y="540" type="curve" smooth="yes"/>
      <point x="457" y="540"/>
      <point x="458" y="509"/>
      <point x="458" y="482" type="curve" smooth="yes"/>
      <point x="458" y="401"/>
      <point x="391" y="179"/>
      <point x="325" y="-2" type="curve"/>
      <point x="238" y="-58"/>
      <point x="86" y="-152"/>
      <point x="77" y="-235" type="curve" smooth="yes"/>
      <point x="76" y="-240"/>
      <point x="76" y="-245"/>
    </contour>
  </outline>
</glyph>
<glyph name="firsttonechinese" format="1">
  <advance width="205"/>
  <unicode hex="02C9"/>
  <outline>
    <contour>
      <point x="114" y="333" type="move" name="_top"/>
    </contour>
    <contour>
      <point x="25" y="600" type="line" smooth="yes"/>
      <point x="194" y="616" type="line" smooth="yes"/>
      <point x="207" y="618"/>
      <point x="212" y="628"/>
      <point x="212" y="637" type="curve" smooth="yes"/>
      <point x="211" y="644"/>
      <point x="208" y="651"/>
      <point x="195" y="651" type="curve" smooth="yes"/>
      <point x="192" y="651" type="line" smooth="yes"/>
      <point x="25" y="640" type="line" smooth="yes"/>
      <point x="10" y="639"/>
      <point x="6" y="629"/>
      <point x="6" y="619" type="curve" smooth="yes"/>
      <point x="6" y="607"/>
      <point x="11" y="600"/>
      <point x="21" y="600" type="curve" smooth="yes"/>
    </contour>
  </outline>
</glyph>
<glyph name="uni030F" format="1">
  <advance width="205"/>
  <unicode hex="030F"/>
  <outline>
    <contour>
      <point x="144" y="333" type="move" name="_top"/>
    </contour>
    <contour>
      <point x="197" y="478" type="line" smooth="yes"/>
      <point x="200" y="475"/>
      <point x="203" y="473"/>
      <point x="206" y="473" type="curve" smooth="yes"/>
      <point x="211" y="473"/>
      <point x="216" y="477"/>
      <point x="216" y="483" type="curve" smooth="yes"/>
      <point x="216" y="485"/>
      <point x="215" y="488"/>
      <point x="214" y="490" type="curve" smooth="yes"/>
      <point x="132" y="639" type="line" smooth="yes"/>
      <point x="126" y="650"/>
      <point x="116" y="655"/>
      <point x="106" y="655" type="curve" smooth="yes"/>
      <point x="90" y="655"/>
      <point x="74" y="642"/>
      <point x="74" y="625" type="curve" smooth="yes"/>
      <point x="74" y="618"/>
      <point x="77" y="610"/>
      <point x="84" y="602" type="curve" smooth="yes"/>
    </contour>
    <contour>
      <point x="61" y="478" type="line" smooth="yes"/>
      <point x="64" y="475"/>
      <point x="67" y="473"/>
      <point x="70" y="473" type="curve" smooth="yes"/>
      <point x="75" y="473"/>
      <point x="79" y="477"/>
      <point x="79" y="483" type="curve" smooth="yes"/>
      <point x="79" y="485"/>
      <point x="78" y="488"/>
      <point x="77" y="490" type="curve" smooth="yes"/>
      <point x="-4" y="639" type="line" smooth="yes"/>
      <point x="-10" y="650"/>
      <point x="-20" y="655"/>
      <point x="-30" y="655" type="curve" smooth="yes"/>
      <point x="-47" y="655"/>
      <point x="-63" y="642"/>
      <point x="-63" y="625" type="curve" smooth="yes"/>
      <point x="-63" y="618"/>
      <point x="-60" y="610"/>
      <point x="-53" y="602" type="curve" smooth="yes"/>
    </contour>
  </outline>
</glyph>
<glyph name="quoteright" format="1">
  <advance width="219"/>
  <unicode hex="2019"/>
  <outline>
    <contour>
      <point x="92" y="419" type="curve" smooth="yes"/>
      <point x="99" y="419"/>
      <point x="104" y="425"/>
      <point x="107" y="435" type="curve" smooth="yes"/>
      <point x="157" y="591" type="line" smooth="yes"/>
      <point x="158" y="594"/>
      <point x="159" y="597"/>
      <point x="159" y="600" type="curve" smooth="yes"/>
      <point x="159" y="613"/>
      <point x="146" y="621"/>
      <point x="133" y="621" type="curve" smooth="yes"/>
      <point x="116" y="621"/>
      <point x="101" y="610"/>
      <point x="100" y="590" type="curve" smooth="yes"/>
      <point x="89" y="438" type="line" smooth="yes"/>
      <point x="89" y="422"/>
      <point x="91" y="419"/>
    </contour>
  </outline>
</glyph>
<glyph name="quotedblleft" format="1">
  <advance width="350"/>
  <unicode hex="201C"/>
  <outline>
    <contour>
      <point x="150" y="615" type="curve" smooth="yes"/>
      <point x="150" y="623"/>
      <point x="148" y="631"/>
      <point x="137" y="631" type="curve" smooth="yes"/>
      <point x="130" y="631"/>
      <point x="124" y="624"/>
      <point x="120" y="614" type="curve" smooth="yes"/>
      <point x="102" y="567"/>
      <point x="70" y="489"/>
      <point x="70" y="437" type="curve" smooth="yes"/>
      <point x="70" y="417"/>
      <point x="82" y="408"/>
      <point x="102" y="408" type="curve" smooth="yes"/>
      <point x="122" y="408"/>
      <point x="133" y="416"/>
      <point x="133" y="438" type="curve" smooth="yes"/>
      <point x="133" y="504"/>
      <point x="148" y="600"/>
    </contour>
    <contour>
      <point x="271" y="619" type="curve" smooth="yes"/>
      <point x="271" y="625"/>
      <point x="268" y="631"/>
      <point x="259" y="631" type="curve" smooth="yes"/>
      <point x="251" y="631"/>
      <point x="246" y="624"/>
      <point x="242" y="614" type="curve" smooth="yes"/>
      <point x="224" y="567"/>
      <point x="191" y="489"/>
      <point x="191" y="437" type="curve" smooth="yes"/>
      <point x="191" y="417"/>
      <point x="203" y="408"/>
      <point x="223" y="408" type="curve" smooth="yes"/>
      <point x="244" y="408"/>
      <point x="254" y="416"/>
      <point x="254" y="438" type="curve" smooth="yes"/>
      <point x="254" y="508"/>
      <point x="271" y="600"/>
    </contour>
  </outline>
</glyph>
<glyph name="trademark" format="1">
  <advance width="923"/>
  <unicode hex="2122"/>
  <outline>
    <contour>
      <point x="811" y="338" type="curve" smooth="yes"/>
      <point x="796" y="338"/>
      <point x="790" y="348"/>
      <point x="790" y="363" type="curve" smooth="yes"/>
      <point x="790" y="403"/>
      <point x="829" y="482"/>
      <point x="836" y="533" type="curve" smooth="yes"/>
      <point x="837" y="537"/>
      <point x="837" y="541"/>
      <point x="837" y="544" type="curve" smooth="yes"/>
      <point x="837" y="577"/>
      <point x="811" y="597"/>
      <point x="774" y="597" type="curve" smooth="yes"/>
      <point x="730" y="597"/>
      <point x="697" y="562"/>
      <point x="675" y="515" type="curve"/>
      <point x="677" y="523"/>
      <point x="678" y="530"/>
      <point x="678" y="538" type="curve" smooth="yes"/>
      <point x="678" y="570"/>
      <point x="662" y="598"/>
      <point x="629" y="598" type="curve" smooth="yes"/>
      <point x="626" y="598"/>
      <point x="622" y="597"/>
      <point x="619" y="597" type="curve" smooth="yes"/>
      <point x="581" y="592"/>
      <point x="529" y="554"/>
      <point x="499" y="489" type="curve"/>
      <point x="510" y="523"/>
      <point x="519" y="554"/>
      <point x="519" y="567" type="curve" smooth="yes"/>
      <point x="519" y="597"/>
      <point x="444" y="597"/>
      <point x="395" y="597" type="curve" smooth="yes"/>
      <point x="394" y="597" type="line" smooth="yes"/>
      <point x="300" y="597"/>
      <point x="201" y="590"/>
      <point x="201" y="504" type="curve" smooth="yes"/>
      <point x="201" y="488"/>
      <point x="208" y="478"/>
      <point x="224" y="478" type="curve" smooth="yes"/>
      <point x="244" y="478"/>
      <point x="258" y="487"/>
      <point x="258" y="504" type="curve" smooth="yes"/>
      <point x="258" y="550"/>
      <point x="296" y="558"/>
      <point x="350" y="558" type="curve" smooth="yes"/>
      <point x="361" y="558" type="line" smooth="yes"/>
      <point x="292" y="350" type="line" smooth="yes"/>
      <point x="290" y="343"/>
      <point x="288" y="336"/>
      <point x="288" y="331" type="curve" smooth="yes"/>
      <point x="288" y="318"/>
      <point x="297" y="311"/>
      <point x="311" y="311" type="curve" smooth="yes"/>
      <point x="324" y="311"/>
      <point x="328" y="321"/>
      <point x="335" y="344" type="curve" smooth="yes"/>
      <point x="352" y="396"/>
      <point x="389" y="515"/>
      <point x="403" y="558" type="curve" smooth="yes"/>
      <point x="415" y="558" type="line" smooth="yes"/>
      <point x="437" y="558"/>
      <point x="466" y="556"/>
      <point x="482" y="552" type="curve"/>
      <point x="482" y="552"/>
      <point x="438" y="413"/>
      <point x="421" y="338" type="curve" smooth="yes"/>
      <point x="420" y="335"/>
      <point x="420" y="332"/>
      <point x="420" y="329" type="curve" smooth="yes"/>
      <point x="420" y="316"/>
      <point x="427" y="307"/>
      <point x="443" y="307" type="curve" smooth="yes"/>
      <point x="458" y="307"/>
      <point x="462" y="320"/>
      <point x="469" y="335" type="curve" smooth="yes"/>
      <point x="480" y="363"/>
      <point x="492" y="396"/>
      <point x="504" y="426" type="curve" smooth="yes"/>
      <point x="529" y="493"/>
      <point x="573" y="538"/>
      <point x="599" y="545" type="curve" smooth="yes"/>
      <point x="602" y="546"/>
      <point x="605" y="546"/>
      <point x="608" y="546" type="curve" smooth="yes"/>
      <point x="624" y="546"/>
      <point x="632" y="533"/>
      <point x="632" y="510" type="curve" smooth="yes"/>
      <point x="632" y="502"/>
      <point x="631" y="494"/>
      <point x="629" y="484" type="curve" smooth="yes"/>
      <point x="621" y="442"/>
      <point x="604" y="390"/>
      <point x="591" y="336" type="curve" smooth="yes"/>
      <point x="590" y="333"/>
      <point x="590" y="331"/>
      <point x="590" y="328" type="curve" smooth="yes"/>
      <point x="590" y="316"/>
      <point x="598" y="307"/>
      <point x="619" y="307" type="curve" smooth="yes"/>
      <point x="629" y="307"/>
      <point x="636" y="315"/>
      <point x="640" y="328" type="curve" smooth="yes"/>
      <point x="665" y="410"/>
      <point x="707" y="541"/>
      <point x="764" y="551" type="curve" smooth="yes"/>
      <point x="767" y="552"/>
      <point x="769" y="552"/>
      <point x="771" y="552" type="curve" smooth="yes"/>
      <point x="783" y="552"/>
      <point x="792" y="545"/>
      <point x="792" y="530" type="curve" smooth="yes"/>
      <point x="792" y="525"/>
      <point x="791" y="520"/>
      <point x="789" y="513" type="curve" smooth="yes"/>
      <point x="773" y="458"/>
      <point x="749" y="412"/>
      <point x="749" y="358" type="curve" smooth="yes"/>
      <point x="749" y="326"/>
      <point x="768" y="303"/>
      <point x="805" y="303" type="curve" smooth="yes"/>
      <point x="841" y="303"/>
      <point x="871" y="327"/>
      <point x="892" y="367" type="curve" smooth="yes"/>
      <point x="895" y="373"/>
      <point x="896" y="378"/>
      <point x="896" y="382" type="curve" smooth="yes"/>
      <point x="896" y="392"/>
      <point x="888" y="397"/>
      <point x="880" y="397" type="curve" smooth="yes"/>
      <point x="875" y="397"/>
      <point x="870" y="395"/>
      <point x="868" y="391" type="curve" smooth="yes"/>
      <point x="855" y="369"/>
      <point x="833" y="338"/>
    </contour>
  </outline>
</glyph>
<glyph name="radical" format="1">
  <advance width="601"/>
  <unicode hex="221A"/>
  <outline>
    <contour>
      <point x="358" y="171" type="line" smooth="yes"/>
      <point x="312" y="61"/>
      <point x="290" y="37"/>
      <point x="275" y="37" type="curve" smooth="yes"/>
      <point x="250" y="37"/>
      <point x="223" y="81"/>
      <point x="223" y="172" type="curve" smooth="yes"/>
      <point x="223" y="206"/>
      <point x="227" y="246"/>
      <point x="236" y="293" type="curve" smooth="yes"/>
      <point x="236" y="296"/>
      <point x="237" y="298"/>
      <point x="237" y="300" type="curve" smooth="yes"/>
      <point x="237" y="317"/>
      <point x="226" y="329"/>
      <point x="202" y="329" type="curve" smooth="yes"/>
      <point x="169" y="329"/>
      <point x="126" y="312"/>
      <point x="91" y="298" type="curve" smooth="yes"/>
      <point x="78" y="293"/>
      <point x="73" y="284"/>
      <point x="73" y="275" type="curve" smooth="yes"/>
      <point x="73" y="262"/>
      <point x="84" y="248"/>
      <point x="96" y="248" type="curve" smooth="yes"/>
      <point x="98" y="248"/>
      <point x="101" y="249"/>
      <point x="103" y="250" type="curve" smooth="yes"/>
      <point x="131" y="264"/>
      <point x="154" y="274"/>
      <point x="185" y="284" type="curve"/>
      <point x="177" y="244"/>
      <point x="174" y="208"/>
      <point x="174" y="177" type="curve" smooth="yes"/>
      <point x="174" y="56"/>
      <point x="224" y="-3"/>
      <point x="272" y="-3" type="curve" smooth="yes"/>
      <point x="326" y="-3"/>
      <point x="354" y="50"/>
      <point x="402" y="160" type="curve" smooth="yes"/>
      <point x="576" y="558" type="line" smooth="yes"/>
      <point x="579" y="565"/>
      <point x="581" y="573"/>
      <point x="581" y="579" type="curve" smooth="yes"/>
      <point x="581" y="596"/>
      <point x="571" y="608"/>
      <point x="559" y="608" type="curve" smooth="yes"/>
      <point x="549" y="608"/>
      <point x="537" y="599"/>
      <point x="527" y="576" type="curve" smooth="yes"/>
    </contour>
  </outline>
</glyph>
<glyph name="infinity" format="1">
  <advance width="653"/>
  <unicode hex="221E"/>
  <outline>
    <contour>
      <point x="574" y="254" type="curve" smooth="yes"/>
      <point x="574" y="204"/>
      <point x="559" y="160"/>
      <point x="506" y="160" type="curve" smooth="yes"/>
      <point x="454" y="160"/>
      <point x="420" y="194"/>
      <point x="388" y="248" type="curve"/>
      <point x="408" y="272"/>
      <point x="458" y="323"/>
      <point x="509" y="323" type="curve" smooth="yes"/>
      <point x="547" y="323"/>
      <point x="574" y="298"/>
    </contour>
    <contour>
      <point x="340" y="248" type="curve"/>
      <point x="315" y="225"/>
      <point x="272" y="157"/>
      <point x="211" y="157" type="curve" smooth="yes"/>
      <point x="172" y="157"/>
      <point x="150" y="184"/>
      <point x="150" y="225" type="curve" smooth="yes"/>
      <point x="150" y="277"/>
      <point x="178" y="335"/>
      <point x="235" y="335" type="curve" smooth="yes"/>
      <point x="286" y="335"/>
      <point x="325" y="278"/>
    </contour>
    <contour>
      <point x="242" y="376" type="curve" smooth="yes"/>
      <point x="152" y="376"/>
      <point x="108" y="305"/>
      <point x="108" y="219" type="curve" smooth="yes"/>
      <point x="108" y="157"/>
      <point x="146" y="113"/>
      <point x="203" y="113" type="curve" smooth="yes"/>
      <point x="209" y="113"/>
      <point x="215" y="113"/>
      <point x="221" y="114" type="curve" smooth="yes"/>
      <point x="286" y="124"/>
      <point x="323" y="174"/>
      <point x="360" y="218" type="curve"/>
      <point x="390" y="172"/>
      <point x="433" y="115"/>
      <point x="507" y="115" type="curve" smooth="yes"/>
      <point x="577" y="115"/>
      <point x="614" y="176"/>
      <point x="614" y="253" type="curve" smooth="yes"/>
      <point x="614" y="319"/>
      <point x="581" y="370"/>
      <point x="517" y="370" type="curve" smooth="yes"/>
      <point x="446" y="370"/>
      <point x="408" y="326"/>
      <point x="369" y="282" type="curve"/>
      <point x="339" y="326"/>
      <point x="309" y="376"/>
    </contour>
  </outline>
</glyph>
<glyph name="f_f" format="1">
  <advance width="476"/>
  <outline>
    <contour>
      <point x="329" y="213" type="curve"/>
      <point x="343" y="278"/>
      <point x="396" y="517"/>
      <point x="489" y="517" type="curve" smooth="yes"/>
      <point x="510" y="517"/>
      <point x="520" y="502"/>
      <point x="520" y="483" type="curve" smooth="yes"/>
      <point x="520" y="403"/>
      <point x="373" y="240"/>
    </contour>
    <contour>
      <point x="117" y="226" type="curve"/>
      <point x="111" y="229"/>
      <point x="104" y="238"/>
      <point x="101" y="246" type="curve" smooth="yes"/>
      <point x="101" y="266"/>
      <point x="163" y="571"/>
      <point x="251" y="571" type="curve" smooth="yes"/>
      <point x="273" y="571"/>
      <point x="277" y="546"/>
      <point x="277" y="526" type="curve" smooth="yes"/>
      <point x="277" y="433"/>
      <point x="171" y="292"/>
    </contour>
    <contour>
      <point x="356" y="-100" type="curve" smooth="yes"/>
      <point x="324" y="-100"/>
      <point x="324" y="-5"/>
      <point x="324" y="73" type="curve" smooth="yes"/>
      <point x="325" y="173" type="line"/>
      <point x="344" y="166" type="line"/>
      <point x="347" y="154"/>
      <point x="396" y="43"/>
      <point x="396" y="-33" type="curve" smooth="yes"/>
      <point x="396" y="-68"/>
      <point x="387" y="-100"/>
    </contour>
    <contour>
      <point x="109" y="-147" type="curve" smooth="yes"/>
      <point x="86" y="-147"/>
      <point x="85" y="-92"/>
      <point x="85" y="-44" type="curve" smooth="yes"/>
      <point x="85" y="-23" type="line" smooth="yes"/>
      <point x="85" y="53"/>
      <point x="93" y="127"/>
      <point x="95" y="205" type="curve"/>
      <point x="125" y="158"/>
      <point x="160" y="77"/>
      <point x="160" y="-27" type="curve" smooth="yes"/>
      <point x="160" y="-29" type="line" smooth="yes"/>
      <point x="160" y="-67"/>
      <point x="159" y="-147"/>
    </contour>
    <contour>
      <point x="28" y="-13" type="curve" smooth="yes"/>
      <point x="28" y="-99"/>
      <point x="36" y="-196"/>
      <point x="109" y="-196" type="curve" smooth="yes"/>
      <point x="188" y="-196"/>
      <point x="213" y="-113"/>
      <point x="213" y="-27" type="curve" smooth="yes"/>
      <point x="213" y="64"/>
      <point x="187" y="127"/>
      <point x="159" y="171" type="curve"/>
      <point x="176" y="165"/>
      <point x="199" y="162"/>
      <point x="222" y="162" type="curve" smooth="yes"/>
      <point x="245" y="162"/>
      <point x="268" y="165"/>
      <point x="283" y="172" type="curve"/>
      <point x="282" y="120"/>
      <point x="279" y="69"/>
      <point x="279" y="18" type="curve" smooth="yes"/>
      <point x="279" y="-63"/>
      <point x="292" y="-146"/>
      <point x="354" y="-146" type="curve" smooth="yes"/>
      <point x="427" y="-146"/>
      <point x="441" y="-76"/>
      <point x="441" y="-27" type="curve" smooth="yes"/>
      <point x="441" y="47"/>
      <point x="414" y="112"/>
      <point x="392" y="161" type="curve"/>
      <point x="403" y="160"/>
      <point x="414" y="160"/>
      <point x="425" y="160" type="curve" smooth="yes"/>
      <point x="497" y="160"/>
      <point x="579" y="174"/>
      <point x="579" y="247" type="curve"/>
      <point x="577" y="261" type="line"/>
      <point x="528" y="220"/>
      <point x="455" y="198"/>
      <point x="407" y="198" type="curve" smooth="yes"/>
      <point x="392" y="198"/>
      <point x="378" y="200"/>
      <point x="365" y="202" type="curve"/>
      <point x="436" y="248"/>
      <point x="564" y="393"/>
      <point x="564" y="504" type="curve" smooth="yes"/>
      <point x="564" y="546"/>
      <point x="542" y="573"/>
      <point x="505" y="573" type="curve" smooth="yes"/>
      <point x="382" y="573"/>
      <point x="314" y="376"/>
      <point x="287" y="206" type="curve"/>
      <point x="263" y="200"/>
      <point x="240" y="197"/>
      <point x="219" y="197" type="curve" smooth="yes"/>
      <point x="192" y="197"/>
      <point x="168" y="201"/>
      <point x="147" y="208" type="curve"/>
      <point x="213" y="284"/>
      <point x="333" y="422"/>
      <point x="333" y="555" type="curve" smooth="yes"/>
      <point x="333" y="597"/>
      <point x="311" y="624"/>
      <point x="274" y="624" type="curve" smooth="yes"/>
      <point x="93" y="624"/>
      <point x="28" y="176"/>
    </contour>
  </outline>
</glyph>
